<svg width="2251" height="34" viewBox="0 0 2251 34" fill="none" xmlns="http://www.w3.org/2000/svg">
<path d="M1218.8 0C1203.15 0 1203.15 14 1187.61 14C1172.07 14 1171.96 0 1156.41 0C1140.87 0 1140.76 14 1125.22 14C1109.57 14 1109.57 0 1093.91 0C1078.26 0 1078.26 14 1062.72 14C1047.07 14 1047.07 0 1031.52 0C1015.87 0 1015.87 14 1000.33 14C984.783 14 984.348 0 968.804 0C953.152 0 953.152 14 937.609 14C922.065 14 921.848 0 906.304 0C890.652 0 890.652 14 875.109 14C859.456 14 859.456 0 843.804 0C828.152 0 828.152 14 812.609 14C796.956 14 796.957 0 781.413 0C765.87 0 765.652 14 750 14C734.348 14 734.348 0 718.804 0C703.152 0 703.152 14 687.609 14C671.956 14 671.956 0 656.304 0C640.652 0 640.652 14 625.109 14C609.456 14 609.457 0 593.913 0C578.261 0 578.261 14 562.717 14C547.065 14 547.065 0 531.522 0C515.87 0 515.87 14 500.217 14C484.565 14 484.565 0 468.913 0C453.261 0 453.261 14 437.609 14C421.957 14 421.957 0 406.304 0C390.652 0 390.652 14 375 14C359.348 14 359.348 0 343.696 0C328.043 0 328.043 14 312.391 14C296.739 14 296.739 0 281.087 0C265.435 0 265.435 14 249.891 14C234.239 14 234.239 0 218.587 0C202.935 0 202.935 14 187.283 14C171.63 14 171.63 0 155.978 0C140.326 0 140.326 14 124.674 14C109.022 14 109.022 0 93.3696 0C78.1522 0 78.1522 14 62.5 14C46.8478 14 46.8478 0 31.3043 0C15.7609 0 15.6522 14 0 14V34H1250V14C1234.35 14 1234.35 0 1218.8 0Z" fill="white"/>
<path d="M1032.2 0C1047.85 0 1047.85 14 1063.39 14C1078.93 14 1079.04 0 1094.59 0C1110.13 0 1110.24 14 1125.78 14C1141.43 14 1141.43 0 1157.09 0C1172.74 0 1172.74 14 1188.28 14C1203.93 14 1203.93 0 1219.48 0C1235.13 0 1235.13 14 1250.67 14C1266.22 14 1266.65 0 1282.2 0C1297.85 0 1297.85 14 1313.39 14C1328.93 14 1329.15 0 1344.7 0C1360.35 0 1360.35 14 1375.89 14C1391.54 14 1391.54 0 1407.2 0C1422.85 0 1422.85 14 1438.39 14C1454.04 14 1454.04 0 1469.59 0C1485.13 0 1485.35 14 1501 14C1516.65 14 1516.65 0 1532.2 0C1547.85 0 1547.85 14 1563.39 14C1579.04 14 1579.04 0 1594.7 0C1610.35 0 1610.35 14 1625.89 14C1641.54 14 1641.54 0 1657.09 0C1672.74 0 1672.74 14 1688.28 14C1703.93 14 1703.93 0 1719.48 0C1735.13 0 1735.13 14 1750.78 14C1766.43 14 1766.43 0 1782.09 0C1797.74 0 1797.74 14 1813.39 14C1829.04 14 1829.04 0 1844.7 0C1860.35 0 1860.35 14 1876 14C1891.65 14 1891.65 0 1907.3 0C1922.96 0 1922.96 14 1938.61 14C1954.26 14 1954.26 0 1969.91 0C1985.57 0 1985.57 14 2001.11 14C2016.76 14 2016.76 0 2032.41 0C2048.07 0 2048.07 14 2063.72 14C2079.37 14 2079.37 0 2095.02 0C2110.67 0 2110.67 14 2126.33 14C2141.98 14 2141.98 0 2157.63 0C2172.85 0 2172.85 14 2188.5 14C2204.15 14 2204.15 0 2219.7 0C2235.24 0 2235.35 14 2251 14V34H1001V14C1016.65 14 1016.65 0 1032.2 0Z" fill="white"/>
</svg>
